# xmcd
#
# Track frame offsets: 
#        150
#        16312
#        30378
#        42764
#        57626
#        72778
#        90109
#        111844
#        126046
#        140574
#        156635
#        170028
#        188892
#        203025
#        220398
#
# Disc length: 3172 seconds
#
# Revision: 1
# Processed by: cddbd v1.5.2PL0 Copyright (c) Steve Scherf et al.
# Submitted via: ExactAudioCopyFreeDBPlugin 1.0
#
DISCID=d50c620f
DTITLE=Green Hill Studio Musicians - 15 American Railroad Classics:  I
DTITLE=nstrumental Train Songs and Sounds (A Green Hill Instrumental C
DTITLE=lassic)
DYEAR=2003
DGENRE=Trains
TTITLE0=Folsom Prison Blues
TTITLE1=Orange Blossom Special
TTITLE2=Casey Jones
TTITLE3=Wabash Cannonball
TTITLE4=I've Been Working on the Railroad
TTITLE5=City of New Orleans
TTITLE6=The Wreck of the Old 97
TTITLE7=Freight Train
TTITLE8=Fireball Mail
TTITLE9=Waiting for a Train
TTITLE10=Reuben's Train
TTITLE11=Night Train to Memphis
TTITLE12=Midnight Train
TTITLE13=I'm Moving on to Glory
TTITLE14=This Train
EXTD=
EXTT0=
EXTT1=
EXTT2=
EXTT3=
EXTT4=
EXTT5=
EXTT6=
EXTT7=
EXTT8=
EXTT9=
EXTT10=
EXTT11=
EXTT12=
EXTT13=
EXTT14=
PLAYORDER=
